<?xml version="1.0" encoding="utf-8"?>
<!-- Generator: Adobe Illustrator 23.0.1, SVG Export Plug-In . SVG Version: 6.00 Build 0)  -->
<svg version="1.1" id="Layer_1" xmlns="http://www.w3.org/2000/svg" xmlns:xlink="http://www.w3.org/1999/xlink" x="0px" y="0px"
	 viewBox="0 0 87 87" style="enable-background:new 0 0 87 87;" xml:space="preserve">
<style type="text/css">
	.st0{fill:#417EFF;}
	.st1{fill:#FFFFFF;}
</style>
<g>
	<circle class="st0" cx="44" cy="43" r="42"/>
</g>
<path class="st1" d="M41.7,53.6c0,1.3,1.1,2.4,2.4,2.4s2.4-1.1,2.4-2.4c0-0.7-1.1-2.5-2.4-4.1C42.8,51.1,41.7,52.8,41.7,53.6z"/>
<path class="st1" d="M48.5,52.4h9.1l-8.9-11V30.1h-9.4v2.4H44v2.4h-4.7v2.4H44v2.4h-4.7v1.9l-8.9,11h9.1c0.9-2.7,4.4-6.4,4.5-6.5
	C45.5,47.6,47.8,50.2,48.5,52.4z"/>
<path class="st1" d="M59.9,55.3l-0.4-0.5H48.6c-1.2,4.7-7.9,4.7-9.1,0H28.5c-0.1,0.2-2.5,2.4-1,5.5c0.8,1.7,2.4,2.7,4.3,2.7h24.5
	c1.8,0,3.5-1,4.3-2.7C61.3,58.6,61.1,56.7,59.9,55.3z"/>
<path class="st1" d="M38.1,27.7h11.8c1.3,0,2.4-1.1,2.4-2.4c0-1.3-1.1-2.4-2.4-2.4H38.1c-1.3,0-2.4,1.1-2.4,2.4
	C35.8,26.7,36.8,27.7,38.1,27.7z"/>
<path class="st1" d="M57,37.1c1.3,0,2.4-1.1,2.4-2.4c0-1.3-1.1-2.4-2.4-2.4c-1.3,0-2.4,1.1-2.4,2.4C54.6,36.1,55.7,37.1,57,37.1z"/>
<path class="st1" d="M31.1,43c1.3,0,2.4-1.1,2.4-2.4s-1.1-2.4-2.4-2.4s-2.4,1.1-2.4,2.4S29.8,43,31.1,43z"/>
</svg>
