<?xml version="1.0" encoding="utf-8"?>
<!-- Generator: Adobe Illustrator 23.0.1, SVG Export Plug-In . SVG Version: 6.00 Build 0)  -->
<svg version="1.1" id="Layer_1" xmlns="http://www.w3.org/2000/svg" xmlns:xlink="http://www.w3.org/1999/xlink" x="0px" y="0px"
	 viewBox="0 0 87 87" style="enable-background:new 0 0 87 87;" xml:space="preserve">
<style type="text/css">
	.st0{fill:#0043BA;}
	.st1{fill:#FFFFFF;}
</style>
<g>
	<circle class="st0" cx="43" cy="43" r="42"/>
</g>
<path class="st1" d="M58.8,27.8h-3v-2.1c0-1.5-1.2-2.8-2.8-2.8h-0.1c-1.5,0-2.8,1.2-2.8,2.8v2.1H35.9v-2.1c0-1.5-1.2-2.8-2.8-2.8H33
	c-1.5,0-2.8,1.2-2.8,2.8v2.1h-3c-1.5,0-2.8,1.2-2.8,2.8v29.6c0,1.5,1.2,2.8,2.8,2.8h31.6c1.5,0,2.8-1.2,2.8-2.8V30.6
	C61.6,29.1,60.3,27.8,58.8,27.8z M56.9,58.6H29.1V36.2h27.9V58.6z"/>
<path class="st1" d="M32.9,46.3h4.8c0.2,0,0.4-0.2,0.4-0.4v-4.8c0-0.2-0.2-0.4-0.4-0.4h-4.8c-0.2,0-0.4,0.2-0.4,0.4v4.8
	C32.4,46.1,32.6,46.3,32.9,46.3z"/>
<path class="st1" d="M40.6,46.3h4.8c0.2,0,0.4-0.2,0.4-0.4v-4.8c0-0.2-0.2-0.4-0.4-0.4h-4.8c-0.2,0-0.4,0.2-0.4,0.4v4.8
	C40.2,46.1,40.4,46.3,40.6,46.3z"/>
<path class="st1" d="M48.3,46.3h4.8c0.2,0,0.4-0.2,0.4-0.4v-4.8c0-0.2-0.2-0.4-0.4-0.4h-4.8c-0.2,0-0.4,0.2-0.4,0.4v4.8
	C47.9,46.1,48.1,46.3,48.3,46.3z"/>
<path class="st1" d="M32.9,54.1h4.8c0.2,0,0.4-0.2,0.4-0.4v-4.8c0-0.2-0.2-0.4-0.4-0.4h-4.8c-0.2,0-0.4,0.2-0.4,0.4v4.8
	C32.4,53.9,32.6,54.1,32.9,54.1z"/>
<path class="st1" d="M40.6,54.1h4.8c0.2,0,0.4-0.2,0.4-0.4v-4.8c0-0.2-0.2-0.4-0.4-0.4h-4.8c-0.2,0-0.4,0.2-0.4,0.4v4.8
	C40.2,53.9,40.4,54.1,40.6,54.1z"/>
<path class="st1" d="M48.3,54.1h4.8c0.2,0,0.4-0.2,0.4-0.4v-4.8c0-0.2-0.2-0.4-0.4-0.4h-4.8c-0.2,0-0.4,0.2-0.4,0.4v4.8
	C47.9,53.9,48.1,54.1,48.3,54.1z"/>
</svg>
