<?xml version="1.0" encoding="utf-8"?>
<!-- Generator: Adobe Illustrator 23.0.1, SVG Export Plug-In . SVG Version: 6.00 Build 0)  -->
<svg version="1.1" id="Layer_1" xmlns="http://www.w3.org/2000/svg" xmlns:xlink="http://www.w3.org/1999/xlink" x="0px" y="0px"
	 viewBox="0 0 464 177" style="enable-background:new 0 0 464 177;" xml:space="preserve">
<style type="text/css">
	.st0{fill:url(#SVGID_1_);fill-opacity:0.16;}
</style>
<linearGradient id="SVGID_1_" gradientUnits="userSpaceOnUse" x1="-6.1951" y1="256.488" x2="-6.1951" y2="6.9053" gradientTransform="matrix(1.0897 1.626361e-03 1.492520e-03 -1 36.4205 177.0632)">
	<stop  offset="0" style="stop-color:#417EFF"/>
	<stop  offset="1" style="stop-color:#417EFF;stop-opacity:0"/>
</linearGradient>
<path class="st0" d="M398.2-7.9l32-1.3c8,3.9,19.1-3.1,24.4-7.1c3.2-2.4,15.8,29.3,9.5,33.9l-0.4,289.3l-870.3-2.6l2-159
	c0.2-16.1,20.7-20.9,31.6-33.4l31.9-36.3c6.4-8,19.2-25.1,19.2-29.2c0-1.6,3.8,4.8,9.3,14.8c3.9,7.1,55.9,7.2,59.5,0.1l2.2-4.3
	c3-5.9,44.7-6.3,51.1-0.5l25.9,23.3c1.7,1.5,12.6,1.4,13.3-0.1c0.8-1.6,12.5-1.6,13.5,0l46.1,77.1c1.9,3.1,24.2,3,25.5-0.1l7.1-17.1
	c0.6-1.6,12-1.5,12.5,0c0.5,1.5,11.3,1.6,12.5,0.1L-8,77.9c2.6-3.3-5.8-78.9-4.7-75.6c1,2.8,20.9-8.9,27.8-11.3l38.2,1.3
	c6.9-102.2,108.8-76.4,76.2,2.2l49.3-10.4c1.3,1.3,75.3-106,10.9,4c0.9-1.3,55.8-3.3,57.3-2l-22.9-5.8c5,4.2,37.6,2,58.4-59.4
	l5.9,63.2c-0.9,36.3,14-10,4.6,3.3c0.2,0.8,13.6-1.6,14.2-2.4l10.2,15.5c2.8-3.6,26.9-4.2,34.4-0.9l23.2-4.4
	c3.2,1.4,12.2,0,13.3-1.6C389.6-7.9,395.2-9.4,398.2-7.9z"/>
</svg>
