<svg width="16" height="20" viewBox="0 0 16 20" fill="none" xmlns="http://www.w3.org/2000/svg">
<path d="M9.66664 1.66667H2.99998C2.55795 1.66667 2.13403 1.84226 1.82147 2.15482C1.50891 2.46738 1.33331 2.89131 1.33331 3.33333V16.6667C1.33331 17.1087 1.50891 17.5326 1.82147 17.8452C2.13403 18.1577 2.55795 18.3333 2.99998 18.3333H13C13.442 18.3333 13.8659 18.1577 14.1785 17.8452C14.491 17.5326 14.6666 17.1087 14.6666 16.6667V6.66667L9.66664 1.66667Z" stroke="#60B09F" stroke-width="1.5" stroke-linecap="round" stroke-linejoin="round"/>
<path d="M9.66669 1.66667V6.66667H14.6667" stroke="#60B09F" stroke-width="1.5" stroke-linecap="round" stroke-linejoin="round"/>
<path d="M11.3334 10.8333H4.66669" stroke="#60B09F" stroke-width="1.5" stroke-linecap="round" stroke-linejoin="round"/>
<path d="M11.3334 14.1667H4.66669" stroke="#60B09F" stroke-width="1.5" stroke-linecap="round" stroke-linejoin="round"/>
<path d="M6.33335 7.5H5.50002H4.66669" stroke="#60B09F" stroke-width="1.5" stroke-linecap="round" stroke-linejoin="round"/>
</svg>
