<svg id="Layer_1" version="1.1" viewBox="0 0 512 512" xml:space="preserve" xmlns="http://www.w3.org/2000/svg"><style>.st64{fill:#fbd023}</style><g id="XMLID_6047_"><g id="XMLID_6048_"><path d="M389,37.3L3,294.9c-2-12.7-3-25.7-3-38.9C0,114.8,114.8,0,256,0 C304.7,0,350.2,13.6,389,37.3z" id="XMLID_6053_" fill="#19b43d"/><path d="M512,256c0,141.1-114.9,256-256,256c-48.7,0-94.2-13.7-133-37.4l386-257.6 C511,229.8,512,242.8,512,256z" id="XMLID_6052_" fill="#07a3dc"/><path d="M501.8,184.5L95.7,455.4c-40.3-32.5-70.6-76.9-85.5-127.9l406.2-271C456.7,89,487,133.5,501.8,184.5z" id="XMLID_6051_"/><path class="st64" d="M416.3,56.5l-406.2,271c-3.1-10.6-5.5-21.5-7.2-32.6L389,37.3 C398.6,43.2,407.7,49.5,416.3,56.5z" id="XMLID_6050_"/><path class="st64" d="M509,217.1L123,474.6c-9.5-5.8-18.7-12.2-27.3-19.3l406.2-270.9 C504.9,195.1,507.3,205.9,509,217.1z" id="XMLID_6049_"/></g></g></svg>