<svg xml:space="preserve" viewBox="0 0 100 100" y="0" x="0" xmlns="http://www.w3.org/2000/svg" id="圖層_1" version="1.1" style="height: 100%; width: 100%; background: rgb(255, 255, 255);" width="200px" height="200px"><g class="ldl-scale" style="transform-origin: 50% 50%; transform: rotate(0deg) scale(0.8, 0.8);"><g class="ldl-ani"><g class="ldl-layer"><g class="ldl-ani" style="transform: scale(0.91); transform-origin: 50px 50px; animation: 1.11111s linear -0.694444s infinite normal forwards running breath-d92b85b5-546a-4313-bf39-739432aab722;"><path stroke="#333" fill="#e15b64" stroke-miterlimit="10" stroke-linejoin="round" stroke-linecap="round" stroke-width="3.5" d="M87.4 37.1c0-.6 0-1.1-.1-1.7-.8-9.4-8.5-17-17.9-17.9-.4 0-.9-.1-1.3-.1-6.3-.2-12 2.6-15.8 7.1-.9 1.1-1.7 2.3-2.4 3.6-.7-1.3-1.5-2.5-2.4-3.6-3.7-4.5-9.4-7.3-15.8-7.1-.4 0-.9 0-1.3.1-9.4.8-17 8.5-17.9 17.9 0 .5-.1 1.1-.1 1.6 0 3.4.8 6.7 2.3 9.5C18 54 24.1 61.3 28.6 66.3c3.2 3.5 6.7 6.7 10.5 9.6 2.2 1.7 7.5 6.5 10.6 6.4h.2c3.1.1 8.3-4.7 10.6-6.4 3.8-2.9 7.3-6.1 10.5-9.6 4.5-5 10.6-12.3 13.9-19.8 1.6-2.7 2.5-5.9 2.5-9.4z" style="fill: rgb(225, 91, 100); stroke: rgb(51, 51, 51);"></path></g></g><g class="ldl-layer"><g class="ldl-ani"><g opacity=".2"><g class="ldl-layer"><g class="ldl-ani" style="transform: scale(0.91); transform-origin: 50px 50px; animation: 1.11111s linear -0.833333s infinite normal forwards running breath-d92b85b5-546a-4313-bf39-739432aab722;"><path stroke-miterlimit="10" stroke-linejoin="round" stroke-linecap="round" stroke-width="3.5" stroke="#000" d="M12.8 35c0 .2-.1.3-.1.5 0 .5-.1 1.1-.1 1.6 0 3.4.8 6.7 2.3 9.5.7 1.5 1.4 3 2.3 4.5-1.7-4.9-3.5-10.5-4.4-16.1z" style=""></path></g></g><g class="ldl-layer"><g class="ldl-ani" style="transform: scale(0.91); transform-origin: 50px 50px; animation: 1.11111s linear -0.972222s infinite normal forwards running breath-d92b85b5-546a-4313-bf39-739432aab722;"><path stroke-miterlimit="10" stroke-linejoin="round" stroke-linecap="round" stroke-width="3.5" stroke="#000" d="M87.3 35.5c-.6-7.1-5.2-13.2-11.4-16.1.6 2.9.8 6.1.5 9.5l-.3 2.1c-.6 4.3-2 8.2-3.8 11.5-4.2 8.7-10.8 16.9-15.6 22.5-3.4 3.9-7 7.5-10.8 10.6-.8.7-2.1 1.8-3.5 3 2.4 1.9 5.4 4 7.5 4h.2c3.1.1 8.3-4.7 10.6-6.4 3.8-2.9 7.3-6.1 10.5-9.6 4.5-5 10.6-12.3 13.9-19.8 1.5-2.8 2.4-6.1 2.3-9.5 0-.7-.1-1.3-.1-1.8z" style=""></path></g></g></g></g></g><g class="ldl-layer"><g class="ldl-ani"><g><g class="ldl-layer"><g class="ldl-ani" style="transform: scale(0.91); transform-origin: 50px 50px; animation: 1.11111s linear -1.11111s infinite normal forwards running breath-d92b85b5-546a-4313-bf39-739432aab722;"><path stroke-miterlimit="10" stroke-width="3.5" stroke="#333" fill="#fff" stroke-linejoin="round" d="M57.3 68.9c-1.7 0-3.3-.9-3.9-2.4l-6.7-14s0-.1-.1-.1l-5-11.9-5.3 11.9c-.5 1.1-1.6 1.8-2.8 1.8H13.1c-1.7 0-3.1-1.4-3.1-3.1s1.4-3.1 3.1-3.1h18.4l6.2-14c.7-1.5 2.2-2.4 3.9-2.4 1.7 0 3.3.9 3.9 2.4l6.7 15.9 5.1 10.6 5.4-10.7c.5-1 1.6-1.7 2.8-1.7H87c1.7 0 3.1 1.4 3.1 3.1s-1.4 3.1-3.1 3.1H67.4l-6.2 12.4c-.7 1.3-2.2 2.2-3.9 2.2z" style="fill: rgb(255, 255, 255); stroke: rgb(51, 51, 51);"></path></g></g></g></g></g><metadata xmlns:d="https://loading.io/stock/"><d:name>pulse</d:name><d:tags>pulse,wave,heartbeat,signal,voltage,current,cardiac,ecg,healthcheck</d:tags><d:license>by</d:license><d:slug>o332dt</d:slug></metadata></g></g></svg>