<svg width="24" height="12" viewBox="0 0 24 12" fill="none" xmlns="http://www.w3.org/2000/svg">
<path d="M23.725 4.99799L23.7242 4.99713L18.8256 0.267655C18.4586 -0.0866461 17.865 -0.0853276 17.4997 0.270747C17.1345 0.626777 17.1359 1.20264 17.5028 1.55698L20.7918 4.73228H0.9375C0.419719 4.73228 0 5.13947 0 5.64179C0 6.14412 0.419719 6.55131 0.9375 6.55131H20.7917L17.5029 9.7266C17.1359 10.0809 17.1345 10.6568 17.4998 11.0128C17.865 11.369 18.4587 11.3702 18.8256 11.0159L23.7242 6.28646L23.7251 6.28559C24.0923 5.93006 24.0911 5.35234 23.725 4.99799Z" fill="#859EB3"/>
</svg>
