<svg width="210" height="58" viewBox="0 0 210 58" fill="none" xmlns="http://www.w3.org/2000/svg">
<path d="M29.1668 29L44.8719 44.6154L33.138 56.2823C30.9392 58.4684 27.3944 58.4684 25.1956 56.2823L13.4617 44.6154L29.1668 29Z" fill="#417EFF"/>
<path d="M44.8719 13.3846L33.138 1.71768C30.9392 -0.468474 27.3944 -0.468474 25.1956 1.71768L13.4617 13.3846L29.1668 29L44.8719 13.3846Z" fill="#417EFF"/>
<path d="M44.8719 44.6154L29.1668 29L13.4617 44.6154H44.8719Z" fill="#005CFF"/>
<path d="M29.1668 29L44.8719 13.3846H13.4617L29.1668 29Z" fill="#80AEFF"/>
<path d="M56.606 25.0515L44.8721 13.3846V44.6154L56.606 32.9484C58.8048 30.7623 58.8048 27.2377 56.606 25.0515Z" fill="#417EFF"/>
<path d="M13.4616 44.6154V13.3846L1.72765 25.0515C-0.471066 27.2377 -0.471066 30.7623 1.72765 32.9484L13.4616 44.6154Z" fill="#417EFF"/>
<path d="M93.1988 21.5938L85.5706 40.1315H84.4264L76.8206 21.5938V40.1315H74.0386V17.8461H78.0322L84.9873 34.8223L91.9873 17.8461H96.0033V40.1315H93.1988V21.5938Z" fill="#2E4059"/>
<path d="M108.186 23.6015C113.1 23.6015 115.994 27.4161 115.994 32.2569V32.8815H102.846C103.048 35.9154 105.202 38.4584 108.702 38.4584C110.542 38.4584 112.427 37.7223 113.705 36.4284L114.917 38.0569C113.302 39.6631 111.125 40.5331 108.455 40.5331C103.654 40.5331 100.177 37.0977 100.177 32.0338C100.199 27.3715 103.564 23.6015 108.186 23.6015ZM102.846 31.0523H113.503C113.481 28.6431 111.866 25.6761 108.164 25.6761C104.709 25.6761 102.981 28.5761 102.846 31.0523Z" fill="#2E4059"/>
<path d="M131.833 37.7446C130.622 39.3731 128.648 40.5554 126.359 40.5554C122.119 40.5554 119.135 37.3431 119.135 32.1007C119.135 26.9477 122.096 23.6015 126.359 23.6015C128.535 23.6015 130.532 24.6723 131.833 26.4346V17.8461H134.346V40.1315H131.833V37.7446ZM131.833 28.4423C130.936 27.0369 128.984 25.8323 126.965 25.8323C123.712 25.8323 121.76 28.5092 121.76 32.0784C121.76 35.6477 123.712 38.3023 126.965 38.3023C128.984 38.3023 130.936 37.1646 131.833 35.7592V28.4423Z" fill="#3E4954"/>
<path d="M138.946 19.5861C138.946 18.6492 139.708 17.9131 140.628 17.9131C141.571 17.9131 142.333 18.6492 142.333 19.5861C142.333 20.5231 141.571 21.2815 140.628 21.2815C139.731 21.2815 138.946 20.5231 138.946 19.5861ZM139.394 24.0031H141.907V40.1538H139.394V24.0031Z" fill="#2E4059"/>
<path d="M146.955 17.8461H149.468V26.4346C150.769 24.6723 152.721 23.6015 154.943 23.6015C159.183 23.6015 162.167 26.9477 162.167 32.1007C162.167 37.3431 159.183 40.5554 154.943 40.5554C152.654 40.5554 150.68 39.3954 149.468 37.7446V40.1538H146.955V17.8461ZM154.314 38.3023C157.612 38.3023 159.564 35.67 159.564 32.0784C159.564 28.5092 157.612 25.8323 154.314 25.8323C152.34 25.8323 150.343 27.0369 149.468 28.4423V35.7592C150.343 37.1646 152.34 38.3023 154.314 38.3023Z" fill="#2E4059"/>
<path d="M167.394 42.4069C168.606 43.9461 170.378 44.6154 172.33 44.6154C175.381 44.6154 177.244 42.8531 177.244 39.7077V37.5438C176.01 38.9492 173.878 40.2208 171.455 40.2208C168.067 40.2208 166.273 38.5923 166.273 35.0677V24.0031H168.785V34.3092C168.785 37.1869 170.221 38.0123 172.42 38.0123C174.394 38.0123 176.279 36.8746 177.221 35.5808V24.0254H179.734V39.7077C179.734 44.5261 176.301 46.69 172.308 46.69C169.593 46.69 167.731 45.8869 166.093 44.2808L167.394 42.4069Z" fill="#2E4059"/>
<path d="M185.321 36.7631V26.1892H182.628V23.9808H185.321V19.5638H187.834V23.9808H191.132V26.1892H187.834V36.2277C187.834 37.4323 188.372 38.3023 189.471 38.3023C190.167 38.3023 190.84 38.0123 191.177 37.6331L191.917 39.5069C191.289 40.1092 190.369 40.5331 188.888 40.5331C186.532 40.5331 185.321 39.1723 185.321 36.7631Z" fill="#2E4059"/>
<path d="M201.744 23.6015C206.657 23.6015 209.551 27.4161 209.551 32.2569V32.8815H196.404C196.606 35.9154 198.76 38.4584 202.26 38.4584C204.1 38.4584 205.984 37.7223 207.263 36.4284L208.475 38.0569C206.859 39.6631 204.683 40.5331 202.013 40.5331C197.212 40.5331 193.734 37.0977 193.734 32.0338C193.757 27.3715 197.122 23.6015 201.744 23.6015ZM196.404 31.0523H207.061C207.039 28.6431 205.423 25.6761 201.721 25.6761C198.266 25.6761 196.539 28.5761 196.404 31.0523Z" fill="#2E4059"/>
</svg>
