<svg width="210" height="58" viewBox="0 0 210 58" fill="none" xmlns="http://www.w3.org/2000/svg">
<path d="M29.1661 29L44.8712 44.6154L33.1372 56.2823C30.9385 58.4685 27.3936 58.4685 25.1949 56.2823L13.4609 44.6154L29.1661 29Z" fill="white"/>
<path d="M44.8712 13.3847L33.1372 1.71774C30.9385 -0.468413 27.3936 -0.468413 25.1949 1.71774L13.4609 13.3847L29.1661 29L44.8712 13.3847Z" fill="white"/>
<path d="M44.8712 44.6154L29.1661 29L13.4609 44.6154H44.8712Z" fill="white"/>
<path d="M29.1661 29.0001L44.8712 13.3848H13.4609L29.1661 29.0001Z" fill="white"/>
<path d="M56.6051 25.0517L44.8711 13.3848V44.6155L56.6051 32.9486C58.8038 30.7625 58.8038 27.2378 56.6051 25.0517Z" fill="white"/>
<path d="M13.4611 44.6155V13.3848L1.72716 25.0517C-0.471554 27.2378 -0.471554 30.7625 1.72716 32.9486L13.4611 44.6155Z" fill="white"/>
<path d="M93.1993 21.5944L85.5711 40.1321H84.4269L76.8211 21.5944V40.1321H74.0391V17.8467H78.0326L84.9878 34.8228L91.9878 17.8467H96.0038V40.1321H93.1993V21.5944Z" fill="white"/>
<path d="M108.185 23.6016C113.099 23.6016 115.993 27.4162 115.993 32.257V32.8816H102.846C103.048 35.9154 105.201 38.4585 108.701 38.4585C110.541 38.4585 112.426 37.7223 113.705 36.4285L114.916 38.057C113.301 39.6631 111.124 40.5331 108.455 40.5331C103.653 40.5331 100.176 37.0977 100.176 32.0339C100.198 27.3716 103.564 23.6016 108.185 23.6016ZM102.846 31.0523H113.503C113.48 28.6431 111.865 25.6762 108.163 25.6762C104.708 25.6762 102.98 28.5762 102.846 31.0523Z" fill="white"/>
<path d="M131.833 37.7451C130.622 39.3736 128.648 40.5559 126.359 40.5559C122.119 40.5559 119.135 37.3436 119.135 32.1013C119.135 26.9482 122.096 23.6021 126.359 23.6021C128.535 23.6021 130.532 24.6728 131.833 26.4351V17.8467H134.346V40.1321H131.833V37.7451ZM131.833 28.4428C130.936 27.0374 128.984 25.8328 126.965 25.8328C123.712 25.8328 121.76 28.5098 121.76 32.079C121.76 35.6482 123.712 38.3028 126.965 38.3028C128.984 38.3028 130.936 37.1651 131.833 35.7598V28.4428Z" fill="white"/>
<path d="M138.945 19.5862C138.945 18.6492 139.708 17.9131 140.628 17.9131C141.57 17.9131 142.333 18.6492 142.333 19.5862C142.333 20.5231 141.57 21.2815 140.628 21.2815C139.731 21.2815 138.945 20.5231 138.945 19.5862ZM139.394 24.0031H141.907V40.1539H139.394V24.0031Z" fill="white"/>
<path d="M146.955 17.8467H149.468V26.4351C150.769 24.6728 152.721 23.6021 154.942 23.6021C159.183 23.6021 162.167 26.9482 162.167 32.1013C162.167 37.3436 159.183 40.5559 154.942 40.5559C152.654 40.5559 150.679 39.3959 149.468 37.7451V40.1544H146.955V17.8467ZM154.314 38.3028C157.612 38.3028 159.564 35.6705 159.564 32.079C159.564 28.5098 157.612 25.8328 154.314 25.8328C152.34 25.8328 150.343 27.0374 149.468 28.4428V35.7598C150.343 37.1651 152.34 38.3028 154.314 38.3028Z" fill="white"/>
<path d="M167.393 42.4068C168.605 43.946 170.377 44.6152 172.329 44.6152C175.38 44.6152 177.242 42.8529 177.242 39.7075V37.5437C176.008 38.9491 173.877 40.2206 171.454 40.2206C168.066 40.2206 166.271 38.5922 166.271 35.0675V24.0029H168.784V34.3091C168.784 37.1868 170.22 38.0122 172.419 38.0122C174.393 38.0122 176.278 36.8745 177.22 35.5806V24.0252H179.733V39.7075C179.733 44.526 176.3 46.6898 172.307 46.6898C169.592 46.6898 167.73 45.8868 166.092 44.2806L167.393 42.4068Z" fill="white"/>
<path d="M185.319 36.7627V26.1889H182.627V23.9804H185.319V19.5635H187.832V23.9804H191.13V26.1889H187.832V36.2273C187.832 37.4319 188.371 38.3019 189.47 38.3019C190.165 38.3019 190.839 38.0119 191.175 37.6327L191.915 39.5065C191.287 40.1089 190.367 40.5327 188.887 40.5327C186.531 40.5327 185.319 39.1719 185.319 36.7627Z" fill="white"/>
<path d="M201.744 23.6016C206.657 23.6016 209.552 27.4162 209.552 32.257V32.8816H196.404C196.606 35.9154 198.76 38.4585 202.26 38.4585C204.1 38.4585 205.984 37.7223 207.263 36.4285L208.475 38.057C206.859 39.6631 204.683 40.5331 202.013 40.5331C197.212 40.5331 193.734 37.0977 193.734 32.0339C193.757 27.3716 197.122 23.6016 201.744 23.6016ZM196.404 31.0523H207.061C207.039 28.6431 205.423 25.6762 201.722 25.6762C198.266 25.6762 196.539 28.5762 196.404 31.0523Z" fill="white"/>
</svg>
