<svg width="150" height="68" viewBox="0 0 150 68" fill="none" xmlns="http://www.w3.org/2000/svg">
<path d="M107.742 49.7022C101.864 49.7022 96.2639 47.3897 92.0901 43.2004C87.9511 39.011 85.3076 32.8779 85.3076 25.27C85.3076 17.6622 87.8467 11.395 92.1248 6.93752C96.3336 2.51359 102.281 0 108.82 0C113.69 0 117.481 1.20653 121.063 3.31795L122.489 1.03895H125.272L125.585 17.9973H122.733C122.35 16.3551 121.794 14.5453 121.063 12.635C120.333 10.6912 119.463 9.04895 118.455 7.70836C116.229 4.65853 113.168 2.84873 109.238 2.84873C104.751 2.84873 100.751 4.79259 97.9334 8.54622C95.2553 12.1658 93.6204 17.9304 93.6204 24.8008C93.6204 30.8669 95.29 35.9947 98.2465 39.8489C101.203 43.6361 105.307 45.915 110.316 45.915C114.072 45.915 117.272 44.675 119.603 42.7981C121.933 40.8208 123.707 38.3071 124.82 35.3579L127.429 36.5644C125.446 41.29 122.802 44.6414 119.498 46.6859C116.194 48.6967 112.298 49.7022 107.742 49.7022Z" fill="black"/>
<path d="M132.151 48.5962H128.743V48.1455C128.963 48.1252 129.232 48.1114 129.395 48.0637C129.657 47.9817 129.792 47.7769 129.792 47.4491V39.6527C129.792 39.3249 129.629 39.0178 129.395 38.8539C129.31 38.7993 129.154 38.7516 128.927 38.7037C128.701 38.656 128.516 38.6286 128.382 38.6219V38.1849L131.01 38.0278L131.11 38.1303V47.3673C131.11 47.6882 131.223 47.8861 131.499 47.9953C131.705 48.0842 131.896 48.1252 132.151 48.1455V48.5962Z" fill="black"/>
<path d="M140.519 48.4732L138.244 48.6234L138.138 48.5278V47.6744H138.096C137.869 47.8997 137.593 48.1797 137.224 48.3912C137.012 48.5142 136.806 48.6098 136.608 48.6713C136.409 48.7326 136.126 48.7667 135.765 48.7667C134.525 48.7667 133.866 47.9681 133.866 46.4865V43.2641C133.866 42.9365 133.738 42.7248 133.49 42.561C133.32 42.4518 133.051 42.4109 132.768 42.3904V41.9465L135.099 41.7827L135.205 41.8783V46.5549C135.205 47.0395 135.318 47.4083 135.545 47.6541C135.772 47.8997 136.041 48.0227 136.36 48.0227C136.877 48.0227 137.288 47.8451 137.564 47.6336C137.819 47.4424 138.018 47.2171 138.124 47.0326V43.2164C138.124 42.916 137.982 42.6839 137.749 42.5201C137.579 42.4109 137.224 42.4109 136.806 42.3904V41.9465L139.343 41.7827L139.449 41.8783V47.2238C139.449 47.5311 139.591 47.7428 139.824 47.8997C139.995 48.0022 140.235 48.0227 140.519 48.0295V48.4732Z" fill="black"/>
<path d="M148.469 45.2235C148.469 46.234 148.136 47.0806 147.477 47.77C146.818 48.4596 146.046 48.801 145.174 48.801C144.409 48.801 143.651 48.5552 142.999 48.1729L142.475 48.9579L142.035 48.8623C142.057 48.5279 142.078 48.1183 142.085 47.6472C142.092 47.1761 142.099 46.7187 142.099 46.275V39.6117C142.099 39.3046 141.936 38.9495 141.709 38.813C141.617 38.7516 141.469 38.7106 141.256 38.6832C141.05 38.6491 140.88 38.6286 140.753 38.6219V38.1849L143.318 38.0278L143.417 38.1303V42.5678L143.467 42.5816C144.055 41.9808 144.777 41.6803 145.45 41.6803C146.308 41.6803 147.03 42.008 147.604 42.6634C148.178 43.3189 148.469 44.1722 148.469 45.2235ZM146.988 45.2714C146.988 44.5955 146.839 43.8446 146.52 43.3256C146.201 42.8 145.684 42.4381 144.954 42.4381C144.295 42.4381 143.814 42.7044 143.417 43.1345V47.0532C143.474 47.2717 143.637 47.5857 143.92 47.852C144.203 48.1047 144.543 48.2821 145.061 48.2821C145.635 48.2821 146.102 48.0158 146.457 47.4765C146.811 46.9373 146.988 46.2066 146.988 45.2714Z" fill="black"/>
<path d="M63.1514 48.596H41.0741V46.1872C41.8839 46.1532 42.905 46.0853 44.1374 45.9495C45.405 45.8139 46.2853 45.6103 46.743 45.3729C48.1867 44.5246 48.8556 43.4728 48.8556 41.8104V6.79627H48.3275L31.2853 47.8156H29.5247L13.2923 5.94805H12.8345V34.6854C12.8345 40.2496 13.5387 42.8961 15.0528 44.1515C15.581 44.6264 16.6374 45.0675 18.257 45.5085C19.8767 45.9495 20.9331 46.1532 21.4261 46.1872V48.596H1.25V46.1872C3.36268 46.0174 6.00353 45.5424 7.27114 44.5585C8.081 43.9138 8.64437 42.9639 8.96128 41.6406C9.27818 40.3175 9.41903 38.146 9.41903 35.0585V10.4266C9.41903 7.57661 8.67959 5.84626 7.37678 4.72663C5.9331 3.50522 3.64437 2.96236 1.5669 2.86058V0.45166H18.6092L32.905 36.5514L45.1233 6.35519C45.5811 5.23555 45.9331 4.082 46.25 2.89451C46.5669 1.67309 46.743 0.858801 46.7783 0.45166H63.0811V2.86058C62.4121 2.89451 61.5671 2.99629 60.5458 3.16593C59.5247 3.33557 58.7853 3.50522 58.3275 3.67486C56.743 4.2177 56.2853 5.60878 56.2853 7.10162V41.8104C56.2853 43.4049 56.743 44.4227 58.3275 45.2371C58.75 45.4745 59.4896 45.6782 60.5811 45.8818C61.6727 46.0514 62.5177 46.1532 63.1514 46.1872V48.596Z" fill="#ED4444"/>
<path d="M70.2944 47.0121C69.7063 48.084 68.7002 48.7736 67.4249 48.7736C66.2984 48.7736 65.4482 48.3639 64.9026 47.7085C64.3571 47.0531 64.0879 46.152 64.0879 45.1758C64.0879 44.3018 64.3784 43.4279 64.938 42.7521C65.4765 42.1036 66.2913 41.6733 67.2832 41.6733C68.3035 41.6733 69.0262 42.0011 69.4796 42.5404C69.9118 43.0524 70.1244 43.7557 70.1244 44.5681V45.0187H65.4977C65.4977 45.8993 65.6679 46.6231 66.0434 47.1692C66.4118 47.6949 67.0069 48.0225 67.8288 48.0225C68.2468 48.0225 68.6082 47.9271 68.9129 47.7426C69.2176 47.5514 69.5151 47.2102 69.7985 46.7186L70.2944 47.0121ZM68.7287 44.4451C68.7287 44.1926 68.7074 43.9195 68.6577 43.626C68.6152 43.3323 68.5444 43.0934 68.4452 42.8955C68.2255 42.479 67.8643 42.1854 67.2691 42.1854C66.773 42.1854 66.3621 42.3835 66.0291 42.7862C65.7032 43.1821 65.5262 43.7352 65.4977 44.4451H68.7287Z" fill="#ED4444"/>
<path d="M78.1735 48.4733L75.7362 48.6234L75.6299 48.5279V47.8997L75.5732 47.8861C75.3252 48.1524 75.0205 48.3639 74.6591 48.5346C74.2979 48.7053 73.9295 48.7872 73.5468 48.7872C72.7532 48.7872 71.974 48.4323 71.4284 47.811C70.8687 47.1829 70.5215 46.2817 70.5215 45.2166C70.5215 44.2404 70.8899 43.3392 71.5063 42.6839C71.7968 42.3766 72.144 42.1377 72.562 41.9534C72.9801 41.769 73.4123 41.6803 73.8444 41.6803C74.4962 41.6803 75.1623 41.8578 75.6157 42.1036V39.7619C75.6157 39.3795 75.474 39.0451 75.2402 38.8813C74.978 38.7106 74.4962 38.6422 73.979 38.6081V38.1848L76.8343 38.0278L76.9407 38.1302V47.2102C76.9407 47.5311 77.0682 47.7426 77.3162 47.8997C77.4934 48.0089 77.8901 48.0225 78.1735 48.0294V48.4733ZM75.6157 47.2921V43.3529C75.5377 43.114 75.3677 42.8205 75.1127 42.595C74.8363 42.3697 74.4749 42.1991 73.9862 42.1991C73.4193 42.1991 72.9376 42.4927 72.5691 43.0184C72.2219 43.5304 72.0023 44.3429 72.0023 45.2986C72.0023 46.0632 72.1368 46.6708 72.4982 47.2102C72.8312 47.7221 73.3413 48.0568 74.0499 48.0568C74.4254 48.0568 74.7371 47.9748 74.9851 47.8177C75.233 47.6608 75.4457 47.4832 75.6157 47.2921Z" fill="#ED4444"/>
<path d="M82.2477 48.5961H78.8681V48.1455C79.0877 48.125 79.3356 48.1182 79.5058 48.0636C79.7678 47.9817 79.8955 47.777 79.8955 47.4492V43.2916C79.8955 42.9979 79.7537 42.7522 79.5058 42.5884C79.3286 42.4792 78.9319 42.3972 78.6484 42.3767V41.933L81.1141 41.7828L81.2133 41.8784V47.3672C81.2133 47.6881 81.3338 47.8929 81.61 47.9954C81.8155 48.0773 81.9997 48.125 82.2477 48.1455V48.5961ZM81.355 39.1269C81.355 39.3865 81.2628 39.6118 81.0858 39.8097C80.9086 40.0009 80.6961 40.0964 80.4339 40.0964C80.193 40.0964 79.9805 40.0077 79.8033 39.8234C79.6261 39.639 79.5411 39.4275 79.5411 39.1884C79.5411 38.9359 79.6261 38.7174 79.8033 38.5331C79.9805 38.3488 80.193 38.2532 80.4339 38.2532C80.7031 38.2532 80.9228 38.3419 81.0928 38.5194C81.27 38.6901 81.355 38.8949 81.355 39.1269Z" fill="#ED4444"/>
<path d="M0 53.6804H149.062V65.9674H0V53.6804Z" fill="#ED4444"/>
<path d="M10.1612 62.1543H8.00734V61.9193C8.0852 61.9172 8.18482 61.9093 8.3062 61.8962C8.42987 61.8829 8.5146 61.8641 8.56041 61.8399C8.6314 61.7979 8.68293 61.7505 8.71499 61.6975C8.74935 61.6424 8.76652 61.5739 8.76652 61.4922V58.0763H8.71499L7.05234 62.0781H6.88057L5.29691 57.9936H5.25226V60.7971C5.25226 61.0686 5.26943 61.2749 5.30379 61.4162C5.34043 61.5573 5.3954 61.6589 5.46868 61.7206C5.51907 61.767 5.62327 61.8112 5.78129 61.8532C5.93931 61.8951 6.04237 61.9172 6.09046 61.9193V62.1543H4.12207V61.9193C4.22512 61.9104 4.33276 61.8938 4.44498 61.8696C4.55949 61.8453 4.64766 61.8089 4.70949 61.7604C4.78965 61.6986 4.84462 61.6038 4.87438 61.4758C4.90415 61.3477 4.91904 61.1337 4.91904 60.8336V58.4304C4.91904 58.2915 4.90187 58.1777 4.86751 58.0895C4.83316 58.0012 4.78391 57.9296 4.7198 57.8744C4.6488 57.8148 4.56177 57.7706 4.45871 57.742C4.35566 57.7132 4.25374 57.6968 4.15298 57.6923V57.4573H5.81565L7.21035 60.9792L8.40238 58.0333C8.4459 57.9251 8.48254 57.8126 8.51232 57.6955C8.54438 57.5765 8.56156 57.497 8.56384 57.4573H10.1544V57.6923C10.0902 57.6945 10.0078 57.7045 9.90702 57.7221C9.80856 57.7398 9.73641 57.7562 9.6906 57.7717C9.61274 57.7982 9.56007 57.8423 9.53259 57.9041C9.5051 57.9659 9.49137 58.0333 9.49137 58.1061V61.4922C9.49137 61.5695 9.5051 61.6346 9.53259 61.6876C9.56007 61.7405 9.61274 61.7868 9.6906 61.8266C9.73182 61.8486 9.80512 61.8696 9.91046 61.8895C10.0158 61.9071 10.0994 61.9172 10.1612 61.9193V62.1543Z" fill="white"/>
<path d="M16.7489 60.7707L16.6561 62.1543H12.6094V61.9193C12.6781 61.9148 12.7697 61.906 12.8842 61.8927C12.9987 61.8774 13.0731 61.8619 13.1075 61.8464C13.1808 61.8134 13.2311 61.7704 13.2586 61.7174C13.2884 61.6645 13.3033 61.5971 13.3033 61.5154V58.1392C13.3033 58.0663 13.2907 58.0023 13.2655 57.9471C13.2403 57.8899 13.1876 57.8435 13.1075 57.8082C13.0456 57.7794 12.962 57.7541 12.8567 57.732C12.7536 57.7099 12.6712 57.6968 12.6094 57.6923V57.4573H16.3812V58.5893H16.1236C16.0778 58.4216 15.9783 58.2441 15.8248 58.0565C15.6736 57.8667 15.5293 57.763 15.3919 57.7453C15.3209 57.7364 15.2362 57.7298 15.1377 57.7254C15.0392 57.721 14.927 57.7189 14.8011 57.7189H14.035V59.5858H14.5846C14.761 59.5858 14.8892 59.5703 14.9694 59.5393C15.0518 59.5063 15.124 59.4521 15.1858 59.3772C15.2362 59.3132 15.2786 59.2281 15.3129 59.1222C15.3495 59.0141 15.3736 58.9126 15.385 58.8177H15.6426V60.6548H15.385C15.3759 60.5489 15.3507 60.4375 15.3095 60.3206C15.2705 60.2014 15.2293 60.1153 15.1858 60.0623C15.1148 59.9763 15.0335 59.9199 14.9419 59.8935C14.8526 59.867 14.7335 59.8538 14.5846 59.8538H14.035V61.2638C14.035 61.4051 14.0453 61.5166 14.0659 61.5981C14.0865 61.6798 14.1266 61.7416 14.1861 61.7835C14.2457 61.8255 14.327 61.8532 14.43 61.8663C14.5331 61.8774 14.6797 61.8829 14.8698 61.8829C14.9453 61.8829 15.045 61.8829 15.1686 61.8829C15.2923 61.8829 15.3965 61.8785 15.4812 61.8696C15.5683 61.8608 15.6576 61.8453 15.7492 61.8233C15.8431 61.799 15.9095 61.767 15.9484 61.7274C16.0537 61.6215 16.1637 61.4614 16.2783 61.2474C16.395 61.031 16.4695 60.8722 16.5015 60.7707H16.7489Z" fill="white"/>
<path d="M23.7447 59.8339C23.7447 60.2333 23.6669 60.5798 23.5111 60.8733C23.3553 61.1668 23.1527 61.4073 22.903 61.5949C22.6511 61.7824 22.3683 61.9226 22.0545 62.0152C21.7408 62.108 21.4167 62.1543 21.0823 62.1543H19.0625V61.9193C19.1289 61.9193 19.2147 61.9137 19.32 61.9028C19.4277 61.8895 19.4988 61.8752 19.5331 61.8597C19.6017 61.8309 19.6509 61.789 19.6808 61.734C19.7128 61.6765 19.7289 61.6082 19.7289 61.5287V58.1392C19.7289 58.0641 19.7152 57.9969 19.6877 57.9373C19.6625 57.8777 19.6109 57.8302 19.5331 57.7949C19.462 57.7619 19.3853 57.7375 19.303 57.7221C19.2205 57.7067 19.1495 57.6968 19.0898 57.6923V57.4573H21.2198C21.513 57.4573 21.8014 57.5014 22.0855 57.5896C22.3694 57.6758 22.6167 57.7927 22.8275 57.9405C23.1138 58.1369 23.3381 58.3941 23.5008 58.7118C23.6634 59.0296 23.7447 59.4037 23.7447 59.8339ZM22.903 59.8306C22.903 59.515 22.8595 59.2305 22.7725 58.9765C22.6855 58.7206 22.5584 58.4978 22.3913 58.308C22.2331 58.127 22.0384 57.9847 21.8072 57.8809C21.5781 57.7772 21.3228 57.7254 21.0411 57.7254C20.9472 57.7254 20.8408 57.7276 20.7217 57.732C20.6048 57.7342 20.5178 57.7364 20.4606 57.7387V61.35C20.4606 61.5507 20.5213 61.6898 20.6427 61.767C20.7641 61.8442 20.9506 61.8829 21.2027 61.8829C21.4934 61.8829 21.7477 61.8333 21.9652 61.734C22.1828 61.6346 22.3591 61.4968 22.4942 61.3201C22.6363 61.1348 22.7392 60.9207 22.8034 60.6781C22.8698 60.4331 22.903 60.1505 22.903 59.8306Z" fill="white"/>
<path d="M28.3044 62.1543H26.1094V61.9193C26.1711 61.9148 26.2605 61.9082 26.3772 61.8995C26.4941 61.8906 26.5766 61.8774 26.6245 61.8597C26.7002 61.8309 26.7552 61.7925 26.7895 61.7438C26.8239 61.6931 26.8411 61.6237 26.8411 61.5353V58.1325C26.8411 58.0554 26.8284 57.9914 26.8033 57.9405C26.778 57.8877 26.7184 57.8435 26.6245 57.8082C26.5559 57.7818 26.4689 57.7573 26.3636 57.7353C26.2605 57.711 26.1758 57.6968 26.1094 57.6923V57.4573H28.3044V57.6923C28.2334 57.6945 28.1487 57.7034 28.0502 57.7189C27.9517 57.732 27.8659 57.7497 27.7927 57.7717C27.7056 57.7982 27.6472 57.8412 27.6173 57.9008C27.5877 57.9604 27.5727 58.0266 27.5727 58.0995V61.499C27.5727 61.5717 27.5887 61.6368 27.6208 61.6942C27.6552 61.7494 27.7125 61.7936 27.7927 61.8266C27.8406 61.8442 27.9186 61.8641 28.0262 61.8862C28.1361 61.906 28.2289 61.9172 28.3044 61.9193V62.1543Z" fill="white"/>
<path d="M32.8925 62.2636C32.6016 62.2636 32.3222 62.2084 32.0543 62.0981C31.7886 61.9878 31.5527 61.8288 31.3466 61.6216C31.1429 61.4141 30.9802 61.1614 30.8588 60.8634C30.7374 60.5633 30.6768 60.2257 30.6768 59.8506C30.6768 59.4754 30.7363 59.1356 30.8554 58.8311C30.9744 58.5243 31.1394 58.2606 31.35 58.04C31.5585 57.8214 31.8047 57.6526 32.0886 57.5336C32.3727 57.4143 32.6761 57.3547 32.9989 57.3547C33.2394 57.3547 33.4571 57.3835 33.6518 57.4408C33.8463 57.4982 34.0319 57.5788 34.2082 57.6825L34.3491 57.4574H34.6238L34.6547 59.1323H34.3732C34.3364 58.969 34.2814 58.7925 34.2082 58.6027C34.1349 58.4108 34.0491 58.2485 33.9505 58.116C33.8407 57.966 33.71 57.8491 33.5589 57.7653C33.4079 57.6792 33.2349 57.6362 33.0402 57.6362C32.818 57.6362 32.6108 57.6836 32.4185 57.7784C32.2283 57.8734 32.0635 58.0135 31.9238 58.1988C31.791 58.3776 31.6868 58.6049 31.6111 58.8807C31.5355 59.1566 31.4979 59.4644 31.4979 59.8042C31.4979 60.1043 31.5368 60.3801 31.6146 60.6317C31.6947 60.8811 31.8082 61.1007 31.9547 61.2905C32.1013 61.4781 32.2741 61.6248 32.4733 61.7308C32.6749 61.8367 32.8994 61.8896 33.1468 61.8896C33.3322 61.8896 33.5029 61.862 33.6586 61.8068C33.8143 61.7495 33.9494 61.6744 34.0639 61.5818C34.1785 61.4847 34.2793 61.3744 34.3663 61.2508C34.4533 61.1272 34.5243 60.9926 34.5793 60.847L34.8369 60.966C34.6399 61.4316 34.3788 61.7649 34.0536 61.9657C33.7285 62.1643 33.3414 62.2636 32.8925 62.2636Z" fill="white"/>
<path d="M41.6405 62.1543H39.6102V61.9193C39.7888 61.9082 39.9366 61.8862 40.0533 61.8532C40.1724 61.82 40.2321 61.7792 40.2321 61.7307C40.2321 61.7108 40.2297 61.6865 40.2252 61.6578C40.2205 61.6291 40.2136 61.6038 40.2046 61.5817L39.7991 60.529H38.0919C38.0277 60.6836 37.975 60.8181 37.9338 60.9329C37.8949 61.0476 37.8594 61.1535 37.8274 61.2507C37.7975 61.3455 37.7769 61.4228 37.7655 61.4824C37.7541 61.542 37.7483 61.5905 37.7483 61.628C37.7483 61.7163 37.8205 61.7846 37.9647 61.8333C38.1089 61.8818 38.2716 61.9104 38.4525 61.9193V62.1543H36.6182V61.9193C36.6777 61.9148 36.7521 61.9028 36.8414 61.8829C36.9307 61.8608 37.0039 61.8322 37.0613 61.7968C37.1529 61.7372 37.2238 61.6754 37.2743 61.6115C37.3246 61.5453 37.3739 61.4549 37.4219 61.34C37.6671 60.7508 37.9372 60.0887 38.2327 59.3539C38.5282 58.6191 38.7914 57.9648 39.0229 57.3911H39.2975L40.9225 61.4426C40.9569 61.5287 40.9958 61.5982 41.0393 61.6512C41.0829 61.7041 41.1435 61.756 41.2213 61.8067C41.2739 61.8377 41.3427 61.8641 41.4275 61.8862C41.5122 61.906 41.5832 61.9172 41.6405 61.9193V62.1543ZM39.6755 60.2344L38.9369 58.414L38.2121 60.2344H39.6755Z" fill="white"/>
<path d="M47.5572 60.7574L47.4542 62.1543H43.6445V61.9193C43.6995 61.9148 43.7784 61.9071 43.8816 61.8962C43.9869 61.8851 44.0602 61.8707 44.1014 61.8532C44.1702 61.8244 44.2194 61.7825 44.2491 61.7274C44.2811 61.6722 44.2972 61.6016 44.2972 61.5154V58.1524C44.2972 58.0774 44.2834 58.0111 44.2559 57.9538C44.2308 57.8964 44.1792 57.8501 44.1014 57.8148C44.0487 57.7883 43.9742 57.763 43.8781 57.7387C43.7842 57.7121 43.7064 57.6968 43.6445 57.6923V57.4573H45.7022V57.6923C45.6381 57.6945 45.5545 57.7056 45.4514 57.7254C45.3506 57.7453 45.2773 57.763 45.2316 57.7783C45.1537 57.8049 45.0998 57.8501 45.0702 57.9141C45.0427 57.9781 45.0289 58.0465 45.0289 58.1194V61.2738C45.0289 61.4195 45.0358 61.5331 45.0495 61.6147C45.0655 61.6942 45.1011 61.756 45.1559 61.8001C45.2087 61.8399 45.2866 61.8663 45.3895 61.8796C45.495 61.8906 45.6416 61.8962 45.8294 61.8962C45.9141 61.8962 46.0022 61.8938 46.0939 61.8895C46.1855 61.8851 46.2725 61.8763 46.3548 61.863C46.435 61.8497 46.5083 61.8322 46.5748 61.81C46.6434 61.7857 46.6939 61.756 46.7259 61.7206C46.8198 61.6191 46.9286 61.4658 47.0523 61.2605C47.1783 61.0531 47.2653 60.8854 47.3133 60.7574H47.5572Z" fill="white"/>
<path d="M56.2795 59.9994C56.3826 60.1097 56.458 60.2311 56.5062 60.3636C56.5565 60.4937 56.5818 60.646 56.5818 60.8202C56.5818 61.2351 56.4226 61.5771 56.1043 61.8464C55.7859 62.1156 55.3909 62.2502 54.9191 62.2502C54.7015 62.2502 54.484 62.2183 54.2663 62.1543C54.0488 62.0881 53.861 62.0086 53.703 61.916L53.5552 62.1576H53.2805L53.2324 60.5488H53.5107C53.5679 60.7475 53.6343 60.9273 53.7099 61.0884C53.7877 61.2473 53.8896 61.3963 54.0155 61.5352C54.1348 61.6655 54.2732 61.7693 54.4313 61.8464C54.5916 61.9237 54.7771 61.9623 54.9877 61.9623C55.1459 61.9623 55.2832 61.9424 55.4001 61.9027C55.5191 61.863 55.6152 61.8066 55.6885 61.7339C55.7618 61.661 55.8157 61.576 55.8501 61.479C55.8866 61.3797 55.9051 61.2661 55.9051 61.138C55.9051 60.9506 55.8501 60.7761 55.7401 60.6151C55.6302 60.4518 55.4665 60.3282 55.2488 60.2444C55.1001 60.1869 54.9295 60.124 54.737 60.0557C54.5446 59.9851 54.3787 59.9188 54.2388 59.857C53.9641 59.7379 53.7499 59.5823 53.5965 59.3903C53.4454 59.1962 53.3698 58.9435 53.3698 58.6323C53.3698 58.4536 53.4076 58.287 53.4832 58.1325C53.5587 57.978 53.6663 57.8401 53.806 57.7188C53.9388 57.604 54.0957 57.5146 54.2766 57.4507C54.4576 57.3845 54.6465 57.3513 54.8435 57.3513C55.0679 57.3513 55.2684 57.3845 55.4446 57.4507C55.6234 57.5168 55.7859 57.5941 55.9324 57.6824L56.0734 57.4572H56.3482L56.3757 59.0162H56.0974C56.047 58.8376 55.9898 58.6666 55.9255 58.5032C55.8638 58.3399 55.7824 58.1921 55.6816 58.0597C55.5832 57.9317 55.463 57.8302 55.321 57.7551C55.179 57.678 55.0049 57.6393 54.7988 57.6393C54.5813 57.6393 54.3959 57.7066 54.2424 57.8412C54.0888 57.9759 54.0121 58.1403 54.0121 58.3344C54.0121 58.5375 54.0615 58.7063 54.1599 58.8409C54.2584 58.9732 54.4015 59.0826 54.5893 59.1686C54.7565 59.2457 54.9202 59.3132 55.0805 59.3704C55.2432 59.4257 55.4001 59.4853 55.5512 59.5493C55.6885 59.6067 55.8202 59.6718 55.9462 59.7445C56.0745 59.8174 56.1855 59.9024 56.2795 59.9994Z" fill="white"/>
<path d="M63.1239 60.7707L63.0311 62.1543H58.9844V61.9193C59.0531 61.9148 59.1447 61.906 59.2592 61.8927C59.3737 61.8774 59.4481 61.8619 59.4825 61.8464C59.5558 61.8134 59.6063 61.7704 59.6336 61.7174C59.6634 61.6645 59.6783 61.5971 59.6783 61.5154V58.1392C59.6783 58.0663 59.6658 58.0023 59.6405 57.9471C59.6153 57.8899 59.5627 57.8435 59.4825 57.8082C59.4206 57.7794 59.337 57.7541 59.2317 57.732C59.1287 57.7099 59.0462 57.6968 58.9844 57.6923V57.4573H62.7562V58.5893H62.4986C62.4528 58.4216 62.3533 58.2441 62.1998 58.0565C62.0486 57.8667 61.9044 57.763 61.767 57.7453C61.6959 57.7364 61.6112 57.7298 61.5128 57.7254C61.4142 57.721 61.302 57.7189 61.1761 57.7189H60.41V59.5858H60.9597C61.1359 59.5858 61.2642 59.5703 61.3444 59.5393C61.4269 59.5063 61.4991 59.4521 61.5608 59.3772C61.6112 59.3132 61.6536 59.2281 61.688 59.1222C61.7245 59.0141 61.7486 58.9126 61.7602 58.8177H62.0177V60.6548H61.7602C61.7509 60.5489 61.7258 60.4375 61.6845 60.3206C61.6456 60.2014 61.6044 60.1153 61.5608 60.0623C61.4898 59.9763 61.4086 59.9199 61.3169 59.8935C61.2277 59.867 61.1086 59.8538 60.9597 59.8538H60.41V61.2638C60.41 61.4051 60.4203 61.5166 60.4409 61.5981C60.4616 61.6798 60.5017 61.7416 60.5612 61.7835C60.6208 61.8255 60.702 61.8532 60.8052 61.8663C60.9081 61.8774 61.0547 61.8829 61.2448 61.8829C61.3203 61.8829 61.42 61.8829 61.5436 61.8829C61.6673 61.8829 61.7716 61.8785 61.8562 61.8696C61.9433 61.8608 62.0327 61.8453 62.1242 61.8233C62.2181 61.799 62.2845 61.767 62.3234 61.7274C62.4287 61.6215 62.5387 61.4614 62.6533 61.2474C62.77 61.031 62.8445 60.8722 62.8766 60.7707H63.1239Z" fill="white"/>
<path d="M70.1987 62.1543H68.8863C68.5955 61.7152 68.3321 61.3356 68.0963 61.0157C67.8627 60.6956 67.6085 60.3658 67.3337 60.0258H66.8355V61.5154C66.8355 61.5927 66.848 61.661 66.8734 61.7206C66.8985 61.7781 66.9523 61.8222 67.0348 61.8532C67.076 61.8685 67.1482 61.8829 67.2512 61.8962C67.3543 61.9093 67.4413 61.9172 67.5123 61.9193V62.1543H65.4512V61.9193C65.506 61.9148 65.5851 61.9071 65.6882 61.8962C65.7935 61.8851 65.8668 61.8707 65.908 61.8532C65.9766 61.8244 66.026 61.7825 66.0557 61.7274C66.0877 61.6722 66.1038 61.6016 66.1038 61.5154V58.1194C66.1038 58.0421 66.0924 57.9737 66.0695 57.9141C66.0466 57.8545 65.9927 57.8093 65.908 57.7783C65.8507 57.7584 65.7763 57.7409 65.6848 57.7254C65.593 57.7077 65.5152 57.6968 65.4512 57.6923V57.4573H67.7012C67.9073 57.4573 68.1009 57.4782 68.2818 57.5202C68.4627 57.5599 68.6265 57.625 68.773 57.7154C68.9149 57.8038 69.0284 57.9196 69.113 58.063C69.1979 58.2043 69.2402 58.3753 69.2402 58.576C69.2402 58.757 69.2116 58.9171 69.1543 59.056C69.0971 59.1951 69.0123 59.3154 68.9001 59.4168C68.7971 59.5118 68.6734 59.5945 68.5291 59.6651C68.3848 59.7336 68.2257 59.792 68.0516 59.8406C68.2921 60.1472 68.4913 60.4055 68.6493 60.6152C68.8096 60.8248 69.0054 61.0797 69.2368 61.3797C69.3376 61.5121 69.428 61.6104 69.5082 61.6743C69.5905 61.7361 69.6719 61.7868 69.7521 61.8266C69.8116 61.8554 69.886 61.8774 69.9754 61.8927C70.0646 61.9082 70.1391 61.9172 70.1987 61.9193V62.1543ZM68.3916 58.6522C68.3916 58.3675 68.307 58.1425 68.1374 57.977C67.968 57.8093 67.7287 57.7254 67.4194 57.7254H66.8355V59.7413H67.2855C67.6016 59.7413 67.8649 59.6441 68.0757 59.45C68.2863 59.2536 68.3916 58.9877 68.3916 58.6522Z" fill="white"/>
<path d="M76.7168 57.6923C76.6573 57.6945 76.5851 57.7077 76.5004 57.732C76.4157 57.7541 76.3459 57.7817 76.2909 57.8148C76.2129 57.8611 76.15 57.9207 76.102 57.9936C76.0561 58.0663 76.0103 58.1524 75.9645 58.2517C75.8111 58.6026 75.5809 59.1499 75.274 59.8935C74.9672 60.6351 74.6511 61.4084 74.3259 62.2139H74.0407C73.7111 61.3599 73.3926 60.5368 73.0857 59.7445C72.7789 58.9523 72.5704 58.4172 72.4606 58.1392C72.4331 58.0707 72.3964 58.0111 72.3506 57.9604C72.3048 57.9075 72.2442 57.8578 72.1686 57.8115C72.1067 57.7739 72.0381 57.7464 71.9625 57.7287C71.8868 57.7088 71.817 57.6968 71.7529 57.6923V57.4573H73.7693V57.6923C73.5976 57.7012 73.4521 57.7178 73.3331 57.742C73.2164 57.7663 73.1579 57.8093 73.1579 57.8711C73.1579 57.8953 73.1625 57.924 73.1717 57.9571C73.1807 57.9903 73.1889 58.0167 73.1957 58.0366C73.2804 58.2528 73.4178 58.6059 73.6079 59.0958C73.7981 59.5834 74.0682 60.2787 74.4187 61.1812C74.5928 60.7729 74.7931 60.2907 75.0198 59.7347C75.2465 59.1785 75.3989 58.7968 75.4767 58.5893C75.5523 58.3885 75.5957 58.2495 75.6073 58.1722C75.6211 58.095 75.6279 58.0321 75.6279 57.9836C75.6279 57.9329 75.6039 57.891 75.5557 57.8578C75.51 57.8226 75.4481 57.7927 75.3703 57.7684C75.2947 57.7464 75.2179 57.7298 75.1401 57.7189C75.0622 57.7077 74.9832 57.699 74.9031 57.6923V57.4573H76.7168V57.6923Z" fill="white"/>
<path d="M80.8719 62.1543H78.6768V61.9193C78.7386 61.9148 78.828 61.9082 78.9447 61.8995C79.0616 61.8906 79.1439 61.8774 79.1921 61.8597C79.2677 61.8309 79.3227 61.7925 79.3569 61.7438C79.3913 61.6931 79.4085 61.6237 79.4085 61.5353V58.1325C79.4085 58.0554 79.396 57.9914 79.3707 57.9405C79.3455 57.8877 79.286 57.8435 79.1921 57.8082C79.1233 57.7818 79.0363 57.7573 78.931 57.7353C78.828 57.711 78.7432 57.6968 78.6768 57.6923V57.4573H80.8719V57.6923C80.801 57.6945 80.7161 57.7034 80.6177 57.7189C80.5192 57.732 80.4333 57.7497 80.36 57.7717C80.273 57.7982 80.2147 57.8412 80.1849 57.9008C80.155 57.9604 80.1402 58.0266 80.1402 58.0995V61.499C80.1402 61.5717 80.1563 61.6368 80.1883 61.6942C80.2227 61.7494 80.2799 61.7936 80.36 61.8266C80.4082 61.8442 80.486 61.8641 80.5936 61.8862C80.7036 61.906 80.7963 61.9172 80.8719 61.9193V62.1543Z" fill="white"/>
<path d="M85.4598 62.2636C85.169 62.2636 84.8896 62.2084 84.6216 62.0981C84.356 61.9878 84.1201 61.8288 83.914 61.6216C83.7101 61.4141 83.5476 61.1614 83.4262 60.8634C83.3048 60.5633 83.2441 60.2257 83.2441 59.8506C83.2441 59.4754 83.3037 59.1356 83.4227 58.8311C83.5418 58.5243 83.7066 58.2606 83.9174 58.04C84.1259 57.8214 84.3719 57.6526 84.656 57.5336C84.9399 57.4143 85.2434 57.3547 85.5663 57.3547C85.8068 57.3547 86.0243 57.3835 86.219 57.4408C86.4137 57.4982 86.5991 57.5788 86.7755 57.6825L86.9163 57.4574H87.1912L87.2221 59.1323H86.9404C86.9038 58.969 86.8488 58.7925 86.7755 58.6027C86.7023 58.4108 86.6163 58.2485 86.5179 58.116C86.4079 57.966 86.2774 57.8491 86.1263 57.7653C85.9751 57.6792 85.8023 57.6362 85.6076 57.6362C85.3854 57.6362 85.1782 57.6836 84.9857 57.7784C84.7957 57.8734 84.6309 58.0135 84.4912 58.1988C84.3582 58.3776 84.2541 58.6049 84.1785 58.8807C84.1029 59.1566 84.0651 59.4644 84.0651 59.8042C84.0651 60.1043 84.1041 60.3801 84.182 60.6317C84.2621 60.8811 84.3754 61.1007 84.5219 61.2905C84.6685 61.4781 84.8415 61.6248 85.0407 61.7308C85.2423 61.8367 85.4666 61.8896 85.714 61.8896C85.8996 61.8896 86.0702 61.862 86.2258 61.8068C86.3816 61.7495 86.5168 61.6744 86.6313 61.5818C86.7457 61.4847 86.8465 61.3744 86.9335 61.2508C87.0205 61.1272 87.0916 60.9926 87.1465 60.847L87.4041 60.966C87.2073 61.4316 86.9462 61.7649 86.621 61.9657C86.2957 62.1643 85.9087 62.2636 85.4598 62.2636Z" fill="white"/>
<path d="M93.7605 60.7707L93.6678 62.1543H89.6211V61.9193C89.6897 61.9148 89.7814 61.906 89.8958 61.8927C90.0103 61.8774 90.0848 61.8619 90.1191 61.8464C90.1925 61.8134 90.2428 61.7704 90.2703 61.7174C90.3 61.6645 90.315 61.5971 90.315 61.5154V58.1392C90.315 58.0663 90.3023 58.0023 90.2772 57.9471C90.252 57.8899 90.1992 57.8435 90.1191 57.8082C90.0573 57.7794 89.9737 57.7541 89.8684 57.732C89.7653 57.7099 89.6828 57.6968 89.6211 57.6923V57.4573H93.393V58.5893H93.1353C93.0895 58.4216 92.9899 58.2441 92.8364 58.0565C92.6853 57.8667 92.5409 57.763 92.4036 57.7453C92.3327 57.7364 92.2478 57.7298 92.1494 57.7254C92.0509 57.721 91.9388 57.7189 91.8127 57.7189H91.0467V59.5858H91.5963C91.7727 59.5858 91.9009 59.5703 91.9811 59.5393C92.0634 59.5063 92.1356 59.4521 92.1975 59.3772C92.2478 59.3132 92.2902 59.2281 92.3245 59.1222C92.3613 59.0141 92.3853 58.9126 92.3967 58.8177H92.6544V60.6548H92.3967C92.3875 60.5489 92.3624 60.4375 92.3211 60.3206C92.2822 60.2014 92.2409 60.1153 92.1975 60.0623C92.1264 59.9763 92.0452 59.9199 91.9536 59.8935C91.8642 59.867 91.7452 59.8538 91.5963 59.8538H91.0467V61.2638C91.0467 61.4051 91.057 61.5166 91.0775 61.5981C91.0981 61.6798 91.1383 61.7416 91.1978 61.7835C91.2573 61.8255 91.3386 61.8532 91.4417 61.8663C91.5448 61.8774 91.6914 61.8829 91.8814 61.8829C91.957 61.8829 92.0566 61.8829 92.1803 61.8829C92.3039 61.8829 92.4081 61.8785 92.493 61.8696C92.58 61.8608 92.6692 61.8453 92.7608 61.8233C92.8547 61.799 92.9211 61.767 92.9602 61.7274C93.0655 61.6215 93.1753 61.4614 93.2899 61.2474C93.4067 61.031 93.4811 60.8722 93.5131 60.7707H93.7605Z" fill="white"/>
<path d="M101.762 62.2636C101.471 62.2636 101.191 62.2084 100.923 62.0981C100.658 61.9878 100.422 61.8288 100.216 61.6216C100.012 61.4141 99.8493 61.1614 99.7279 60.8634C99.6067 60.5633 99.5459 60.2257 99.5459 59.8506C99.5459 59.4754 99.6054 59.1356 99.7245 58.8311C99.8437 58.5243 100.009 58.2606 100.219 58.04C100.428 57.8214 100.674 57.6526 100.958 57.5336C101.242 57.4143 101.545 57.3547 101.868 57.3547C102.109 57.3547 102.326 57.3835 102.521 57.4408C102.716 57.4982 102.901 57.5788 103.077 57.6825L103.218 57.4574H103.493L103.524 59.1323H103.242C103.206 58.969 103.151 58.7925 103.077 58.6027C103.004 58.4108 102.918 58.2485 102.82 58.116C102.71 57.966 102.579 57.8491 102.428 57.7653C102.277 57.6792 102.104 57.6362 101.909 57.6362C101.687 57.6362 101.48 57.6836 101.288 57.7784C101.097 57.8734 100.933 58.0135 100.793 58.1988C100.66 58.3776 100.556 58.6049 100.48 58.8807C100.405 59.1566 100.367 59.4644 100.367 59.8042C100.367 60.1043 100.406 60.3801 100.484 60.6317C100.564 60.8811 100.677 61.1007 100.824 61.2905C100.97 61.4781 101.143 61.6248 101.343 61.7308C101.544 61.8367 101.769 61.8896 102.016 61.8896C102.201 61.8896 102.372 61.862 102.528 61.8068C102.683 61.7495 102.819 61.6744 102.933 61.5818C103.048 61.4847 103.148 61.3744 103.235 61.2508C103.322 61.1272 103.393 60.9926 103.448 60.847L103.706 60.966C103.509 61.4316 103.248 61.7649 102.923 61.9657C102.598 62.1643 102.211 62.2636 101.762 62.2636Z" fill="white"/>
<path d="M109.901 58.0134C110.116 58.2296 110.285 58.491 110.406 58.7978C110.527 59.1023 110.588 59.44 110.588 59.8107C110.588 60.1836 110.526 60.5223 110.402 60.8269C110.279 61.1314 110.107 61.3908 109.887 61.6048C109.674 61.8166 109.427 61.98 109.145 62.0946C108.864 62.2095 108.564 62.2667 108.245 62.2667C107.906 62.2667 107.592 62.206 107.304 62.0848C107.018 61.9612 106.771 61.7902 106.565 61.5716C106.359 61.3576 106.197 61.0984 106.077 60.7938C105.961 60.487 105.902 60.1594 105.902 59.8107C105.902 59.4289 105.964 59.0891 106.088 58.7912C106.212 58.491 106.382 58.2318 106.6 58.0134C106.815 57.797 107.065 57.6315 107.349 57.5168C107.635 57.402 107.934 57.3447 108.245 57.3447C108.568 57.3447 108.873 57.4032 109.159 57.5201C109.445 57.6371 109.693 57.8016 109.901 58.0134ZM109.389 61.3432C109.517 61.1425 109.61 60.9152 109.667 60.6614C109.727 60.4077 109.757 60.124 109.757 59.8107C109.757 59.4885 109.723 59.1928 109.657 58.9236C109.593 58.6543 109.498 58.4248 109.372 58.2351C109.246 58.0475 109.088 57.9018 108.898 57.7981C108.708 57.6922 108.49 57.6393 108.245 57.6393C107.97 57.6393 107.737 57.7 107.544 57.8213C107.352 57.9427 107.195 58.1049 107.074 58.308C106.959 58.5021 106.873 58.7294 106.816 58.9898C106.761 59.2503 106.734 59.5239 106.734 59.8107C106.734 60.1284 106.763 60.4153 106.823 60.6713C106.882 60.9272 106.976 61.1545 107.105 61.3532C107.228 61.5474 107.384 61.6996 107.572 61.8099C107.76 61.9182 107.984 61.9721 108.245 61.9721C108.49 61.9721 108.711 61.9171 108.908 61.8066C109.105 61.6963 109.265 61.5419 109.389 61.3432Z" fill="white"/>
<path d="M118.897 62.1543H116.743V61.9193C116.821 61.9172 116.92 61.9093 117.042 61.8962C117.165 61.8829 117.25 61.8641 117.296 61.8399C117.367 61.7979 117.418 61.7505 117.45 61.6975C117.485 61.6424 117.502 61.5739 117.502 61.4922V58.0763H117.45L115.788 62.0781H115.616L114.032 57.9936H113.988V60.7971C113.988 61.0686 114.005 61.2749 114.039 61.4162C114.076 61.5573 114.131 61.6589 114.204 61.7206C114.254 61.767 114.359 61.8112 114.517 61.8532C114.675 61.8951 114.778 61.9172 114.826 61.9193V62.1543H112.857V61.9193C112.961 61.9104 113.068 61.8938 113.18 61.8696C113.295 61.8453 113.383 61.8089 113.445 61.7604C113.525 61.6986 113.58 61.6038 113.61 61.4758C113.64 61.3477 113.654 61.1337 113.654 60.8336V58.4304C113.654 58.2915 113.637 58.1777 113.603 58.0895C113.569 58.0012 113.519 57.9296 113.455 57.8744C113.384 57.8148 113.297 57.7706 113.194 57.742C113.091 57.7132 112.989 57.6968 112.888 57.6923V57.4573H114.551L115.946 60.9792L117.138 58.0333C117.181 57.9251 117.218 57.8126 117.248 57.6955C117.28 57.5765 117.297 57.497 117.299 57.4573H118.89V57.6923C118.826 57.6945 118.743 57.7045 118.642 57.7221C118.544 57.7398 118.472 57.7562 118.426 57.7717C118.348 57.7982 118.296 57.8423 118.268 57.9041C118.241 57.9659 118.227 58.0333 118.227 58.1061V61.4922C118.227 61.5695 118.241 61.6346 118.268 61.6876C118.296 61.7405 118.348 61.7868 118.426 61.8266C118.467 61.8486 118.541 61.8696 118.646 61.8895C118.751 61.9071 118.835 61.9172 118.897 61.9193V62.1543Z" fill="white"/>
<path d="M125.116 58.6158C125.116 58.8608 125.066 59.0781 124.965 59.2679C124.867 59.4554 124.729 59.6111 124.553 59.7347C124.379 59.8581 124.187 59.9487 123.979 60.0061C123.771 60.0634 123.55 60.0922 123.316 60.0922H122.77V61.5154C122.77 61.5927 122.782 61.661 122.808 61.7206C122.835 61.7781 122.89 61.8222 122.973 61.8532C123.014 61.8685 123.086 61.8829 123.189 61.8962C123.294 61.9093 123.391 61.9172 123.478 61.9193V62.1543H121.385V61.9193C121.44 61.9148 121.519 61.9071 121.622 61.8962C121.728 61.8851 121.801 61.8707 121.842 61.8532C121.911 61.8244 121.96 61.7825 121.99 61.7274C122.022 61.6722 122.038 61.6016 122.038 61.5154V58.1259C122.038 58.0486 122.027 57.9792 122.004 57.9174C121.981 57.8556 121.927 57.8093 121.842 57.7783C121.755 57.7497 121.668 57.7298 121.581 57.7189C121.496 57.7056 121.423 57.6968 121.361 57.6923V57.4573H123.587C124.041 57.4573 124.409 57.5632 124.69 57.775C124.974 57.9847 125.116 58.265 125.116 58.6158ZM124.072 59.4168C124.15 59.3109 124.201 59.2017 124.226 59.0892C124.252 58.9744 124.264 58.8719 124.264 58.7813C124.264 58.6555 124.248 58.5275 124.216 58.3974C124.186 58.2672 124.134 58.1535 124.058 58.0565C123.978 57.9527 123.873 57.8722 123.742 57.8148C123.611 57.7573 123.449 57.7287 123.254 57.7287H122.77V59.8042H123.12C123.368 59.8042 123.568 59.7677 123.721 59.695C123.877 59.6199 123.994 59.5272 124.072 59.4168Z" fill="white"/>
<path d="M132.053 62.1543H130.022V61.9193C130.201 61.9082 130.349 61.8862 130.466 61.8532C130.585 61.82 130.644 61.7792 130.644 61.7307C130.644 61.7108 130.642 61.6865 130.637 61.6578C130.633 61.6291 130.626 61.6038 130.617 61.5817L130.211 60.529H128.504C128.44 60.6836 128.387 60.8181 128.346 60.9329C128.307 61.0476 128.272 61.1535 128.239 61.2507C128.21 61.3455 128.189 61.4228 128.178 61.4824C128.166 61.542 128.16 61.5905 128.16 61.628C128.16 61.7163 128.233 61.7846 128.377 61.8333C128.521 61.8818 128.684 61.9104 128.865 61.9193V62.1543H127.03V61.9193C127.09 61.9148 127.164 61.9028 127.254 61.8829C127.343 61.8608 127.416 61.8322 127.473 61.7968C127.565 61.7372 127.636 61.6754 127.687 61.6115C127.737 61.5453 127.786 61.4549 127.834 61.34C128.079 60.7508 128.349 60.0887 128.645 59.3539C128.94 58.6191 129.204 57.9648 129.435 57.3911H129.71L131.335 61.4426C131.369 61.5287 131.408 61.5982 131.452 61.6512C131.495 61.7041 131.556 61.756 131.634 61.8067C131.686 61.8377 131.755 61.8641 131.84 61.8862C131.924 61.906 131.995 61.9172 132.053 61.9193V62.1543ZM130.088 60.2344L129.349 58.414L128.624 60.2344H130.088Z" fill="white"/>
<path d="M139.06 57.6923C138.996 57.6945 138.897 57.7121 138.764 57.7453C138.631 57.7783 138.536 57.8126 138.479 57.8479C138.397 57.903 138.341 58.0089 138.311 58.1657C138.283 58.3223 138.27 58.521 138.27 58.7614V62.2006H137.971L135.016 58.3576V60.7805C135.016 61.052 135.034 61.2605 135.068 61.4062C135.105 61.5518 135.159 61.6556 135.233 61.7174C135.286 61.7659 135.394 61.8112 135.559 61.8532C135.724 61.8951 135.833 61.9171 135.886 61.9193V62.1543H133.886V61.9193C133.948 61.9148 134.052 61.8938 134.199 61.8564C134.345 61.8167 134.437 61.7813 134.474 61.7505C134.554 61.6887 134.609 61.5949 134.639 61.4691C134.668 61.3411 134.683 61.1238 134.683 60.817V58.5033C134.683 58.4018 134.665 58.3002 134.628 58.1987C134.592 58.0973 134.542 58.0189 134.48 57.9637C134.398 57.891 134.286 57.8292 134.144 57.7783C134.004 57.7254 133.891 57.6968 133.804 57.6923V57.4573H135.195L137.936 61.0388V58.8045C137.936 58.5308 137.918 58.3212 137.881 58.1755C137.845 58.0277 137.792 57.9296 137.723 57.8809C137.659 57.839 137.554 57.7982 137.407 57.7584C137.263 57.7189 137.153 57.6968 137.078 57.6923V57.4573H139.06V57.6923Z" fill="white"/>
<path d="M145.464 57.6923C145.425 57.6945 145.363 57.7099 145.278 57.7387C145.194 57.7652 145.133 57.7916 145.096 57.818C145.007 57.8711 144.946 57.9119 144.914 57.9405C144.882 57.9693 144.82 58.0443 144.729 58.1657C144.55 58.4083 144.385 58.6544 144.234 58.9038C144.083 59.1532 143.894 59.4698 143.667 59.8538C143.582 59.995 143.526 60.1086 143.499 60.1948C143.471 60.2809 143.458 60.4055 143.458 60.5687V61.4658C143.458 61.5453 143.474 61.6147 143.506 61.6743C143.54 61.7318 143.597 61.7781 143.677 61.8134C143.726 61.8309 143.811 61.8532 143.935 61.8796C144.059 61.9039 144.159 61.9172 144.234 61.9193V62.1543H141.953V61.9193C142.017 61.9148 142.113 61.9071 142.242 61.8962C142.37 61.8829 142.459 61.8663 142.509 61.8464C142.592 61.8134 142.648 61.7681 142.678 61.7108C142.71 61.6534 142.726 61.5828 142.726 61.499V60.3569C142.726 60.3217 142.703 60.2577 142.657 60.1649C142.614 60.0701 142.561 59.9653 142.499 59.8505C142.362 59.5945 142.209 59.3176 142.042 59.0197C141.875 58.7217 141.73 58.4668 141.606 58.255C141.531 58.1292 141.463 58.0344 141.403 57.9704C141.346 57.9064 141.28 57.8501 141.204 57.8016C141.149 57.7685 141.083 57.7431 141.005 57.7254C140.929 57.7077 140.861 57.6968 140.799 57.6923V57.4573H142.877V57.6923C142.644 57.6968 142.479 57.7121 142.382 57.7387C142.286 57.7652 142.238 57.8027 142.238 57.8512C142.238 57.8645 142.245 57.8877 142.259 57.9207C142.272 57.9538 142.292 57.9958 142.317 58.0465C142.347 58.1039 142.382 58.1701 142.424 58.2451C142.465 58.3179 142.504 58.3885 142.54 58.457C142.648 58.6533 142.758 58.8497 142.87 59.0462C142.982 59.2403 143.129 59.4941 143.31 59.8074C143.669 59.2491 143.943 58.8145 144.131 58.5033C144.321 58.1899 144.416 58.0023 144.416 57.9405C144.416 57.8899 144.397 57.849 144.358 57.818C144.319 57.7872 144.267 57.763 144.203 57.7453C144.137 57.7276 144.065 57.7165 143.987 57.7121C143.909 57.7056 143.837 57.699 143.77 57.6923V57.4573H145.464V57.6923Z" fill="white"/>
</svg>
