<svg width="16" height="16" viewBox="0 0 16 16" fill="none" xmlns="http://www.w3.org/2000/svg">
<path d="M15.5312 7.53125H13.1562V6.5625H15.5C15.7589 6.5625 15.9688 6.35262 15.9688 6.09375V1.40625C15.9688 1.14737 15.7589 0.9375 15.5 0.9375H8C7.74113 0.9375 7.53125 1.14737 7.53125 1.40625V6.09375C7.53125 6.35262 7.74113 6.5625 8 6.5625H10.3438V7.53125H6.59375V5.15625C6.59375 4.38084 5.96291 3.75 5.1875 3.75H3.78125H2.375C1.59959 3.75 0.96875 4.38084 0.96875 5.15625V7.53125H0.46875C0.209875 7.53125 0 7.74113 0 8V15.5312C0 15.7901 0.209875 16 0.46875 16H15.5312C15.7901 16 16 15.7901 16 15.5312V8C16 7.74113 15.7901 7.53125 15.5312 7.53125ZM8.46875 5.625V1.875H15.0312V5.625H13.1562V4.21875C13.1562 3.95988 12.9464 3.75 12.6875 3.75H10.8125C10.5536 3.75 10.3438 3.95988 10.3438 4.21875V5.625H8.46875ZM11.2812 4.6875H12.2188V7.53125H11.2812V4.6875ZM1.90625 5.15625C1.90625 4.89778 2.11653 4.6875 2.375 4.6875H5.1875C5.44597 4.6875 5.65625 4.89778 5.65625 5.15625V7.53125H1.90625V5.15625ZM15.0625 15.0625H0.9375V8.46875H15.0625V15.0625Z" fill="white"/>
<path d="M5.65625 1.875C5.65625 0.841125 4.81512 0 3.78125 0C2.74738 0 1.90625 0.841125 1.90625 1.875C1.90625 2.90887 2.74738 3.75 3.78125 3.75C4.81512 3.75 5.65625 2.90887 5.65625 1.875ZM3.78125 2.8125C3.26431 2.8125 2.84375 2.39194 2.84375 1.875C2.84375 1.35806 3.26431 0.9375 3.78125 0.9375C4.29819 0.9375 4.71875 1.35806 4.71875 1.875C4.71875 2.39194 4.29819 2.8125 3.78125 2.8125Z" fill="white"/>
</svg>
