<?xml version="1.0" encoding="utf-8"?>
<!-- Generator: Adobe Illustrator 23.0.1, SVG Export Plug-In . SVG Version: 6.00 Build 0)  -->
<svg version="1.1" id="Layer_1" xmlns="http://www.w3.org/2000/svg" xmlns:xlink="http://www.w3.org/1999/xlink" x="0px" y="0px"
	 viewBox="0 0 87 87" style="enable-background:new 0 0 87 87;" xml:space="preserve">
<style type="text/css">
	.st0{fill:#80AEFF;}
	.st1{fill:#FFFFFF;}
</style>
<g>
	<circle class="st0" cx="43" cy="43" r="42"/>
</g>
<path class="st1" d="M31.3,44.4c-4.1,0-7.5,3.4-7.5,7.5s3.4,7.5,7.5,7.5s7.5-3.4,7.5-7.5S35.4,44.4,31.3,44.4z M42.5,25.6
	c-4.1,0-7.5,3.4-7.5,7.5s3.4,7.5,7.5,7.5s7.5-3.4,7.5-7.5S46.6,25.6,42.5,25.6z M53.8,44.4c-4.1,0-7.5,3.4-7.5,7.5s3.4,7.5,7.5,7.5
	s7.5-3.4,7.5-7.5S57.9,44.4,53.8,44.4z"/>
</svg>
