<svg width="768" height="1024" viewBox="0 0 768 1024" fill="none" xmlns="http://www.w3.org/2000/svg">
<path d="M733 0H35C15.67 0 0 15.67 0 35V989C0 1008.33 15.6701 1024 35 1024H733C752.33 1024 768 1008.33 768 989V35C768 15.67 752.33 0 733 0Z" fill="url(#paint0_linear)"/>
<path d="M768 492L1130.36 854.362L811.897 1172.83C787.665 1197.06 748.335 1197.06 724.009 1172.83L405.545 854.362L768 492Z" fill="url(#paint1_linear)"/>
<path d="M1130.36 129.639L811.9 -188.826C787.668 -213.058 748.337 -213.058 724.012 -188.826L405.641 129.639L768.002 492L1130.36 129.639Z" fill="url(#paint2_linear)"/>
<path d="M1130.36 854.362L768.002 492L405.641 854.362H1130.36Z" fill="url(#paint3_linear)"/>
<path d="M768.002 491.999L1130.36 129.638H405.641L768.002 491.999Z" fill="url(#paint4_linear)"/>
<path d="M405.639 854.361V129.638L87.174 448.102C62.942 472.334 62.942 511.665 87.174 535.99L405.639 854.361Z" fill="url(#paint5_linear)"/>
<path d="M555.166 53L570.871 68.6154L559.137 80.2823C556.939 82.4685 553.394 82.4685 551.195 80.2823L539.461 68.6154L555.166 53Z" fill="white"/>
<path d="M570.871 37.3847L559.137 25.7177C556.939 23.5316 553.394 23.5316 551.195 25.7177L539.461 37.3847L555.166 53L570.871 37.3847Z" fill="white"/>
<path d="M570.871 68.6154L555.166 53L539.461 68.6154H570.871Z" fill="white"/>
<path d="M555.166 53.0001L570.871 37.3848H539.461L555.166 53.0001Z" fill="white"/>
<path d="M582.605 49.0517L570.871 37.3848V68.6155L582.605 56.9486C584.804 54.7625 584.804 51.2378 582.605 49.0517Z" fill="white"/>
<path d="M539.461 68.6155V37.3848L527.727 49.0517C525.528 51.2378 525.528 54.7625 527.727 56.9486L539.461 68.6155Z" fill="white"/>
<path d="M619.199 45.5944L611.571 64.1321H610.427L602.821 45.5944V64.1321H600.039V41.8467H604.033L610.988 58.8228L617.988 41.8467H622.004V64.1321H619.199V45.5944Z" fill="white"/>
<path d="M634.185 47.6016C639.099 47.6016 641.993 51.4162 641.993 56.257V56.8816H628.846C629.048 59.9154 631.201 62.4585 634.701 62.4585C636.541 62.4585 638.426 61.7223 639.705 60.4285L640.916 62.057C639.301 63.6631 637.124 64.5331 634.455 64.5331C629.653 64.5331 626.176 61.0977 626.176 56.0339C626.198 51.3716 629.564 47.6016 634.185 47.6016ZM628.846 55.0523H639.503C639.48 52.6431 637.865 49.6762 634.163 49.6762C630.708 49.6762 628.98 52.5762 628.846 55.0523Z" fill="white"/>
<path d="M657.833 61.7451C656.622 63.3736 654.648 64.5559 652.359 64.5559C648.119 64.5559 645.135 61.3436 645.135 56.1013C645.135 50.9482 648.096 47.6021 652.359 47.6021C654.535 47.6021 656.532 48.6728 657.833 50.4351V41.8467H660.346V64.1321H657.833V61.7451ZM657.833 52.4428C656.936 51.0374 654.984 49.8328 652.965 49.8328C649.712 49.8328 647.76 52.5098 647.76 56.079C647.76 59.6482 649.712 62.3028 652.965 62.3028C654.984 62.3028 656.936 61.1651 657.833 59.7598V52.4428Z" fill="white"/>
<path d="M664.945 43.5862C664.945 42.6492 665.708 41.9131 666.628 41.9131C667.57 41.9131 668.333 42.6492 668.333 43.5862C668.333 44.5231 667.57 45.2815 666.628 45.2815C665.731 45.2815 664.945 44.5231 664.945 43.5862ZM665.394 48.0031H667.907V64.1539H665.394V48.0031Z" fill="white"/>
<path d="M672.955 41.8467H675.468V50.4351C676.769 48.6728 678.721 47.6021 680.942 47.6021C685.183 47.6021 688.167 50.9482 688.167 56.1013C688.167 61.3436 685.183 64.5559 680.942 64.5559C678.654 64.5559 676.679 63.3959 675.468 61.7451V64.1544H672.955V41.8467ZM680.314 62.3028C683.612 62.3028 685.564 59.6705 685.564 56.079C685.564 52.5098 683.612 49.8328 680.314 49.8328C678.34 49.8328 676.343 51.0374 675.468 52.4428V59.7598C676.343 61.1651 678.34 62.3028 680.314 62.3028Z" fill="white"/>
<path d="M693.393 66.4068C694.605 67.946 696.377 68.6152 698.329 68.6152C701.38 68.6152 703.242 66.8529 703.242 63.7075V61.5437C702.008 62.9491 699.877 64.2206 697.454 64.2206C694.066 64.2206 692.271 62.5922 692.271 59.0675V48.0029H694.784V58.3091C694.784 61.1868 696.22 62.0122 698.419 62.0122C700.393 62.0122 702.278 60.8745 703.22 59.5806V48.0252H705.733V63.7075C705.733 68.526 702.3 70.6898 698.307 70.6898C695.592 70.6898 693.73 69.8868 692.092 68.2806L693.393 66.4068Z" fill="white"/>
<path d="M711.319 60.7627V50.1889H708.627V47.9804H711.319V43.5635H713.832V47.9804H717.13V50.1889H713.832V60.2273C713.832 61.4319 714.371 62.3019 715.47 62.3019C716.165 62.3019 716.839 62.0119 717.175 61.6327L717.915 63.5065C717.287 64.1089 716.367 64.5327 714.887 64.5327C712.531 64.5327 711.319 63.1719 711.319 60.7627Z" fill="white"/>
<path d="M727.744 47.6016C732.657 47.6016 735.552 51.4162 735.552 56.257V56.8816H722.404C722.606 59.9154 724.76 62.4585 728.26 62.4585C730.1 62.4585 731.984 61.7223 733.263 60.4285L734.475 62.057C732.859 63.6631 730.683 64.5331 728.013 64.5331C723.212 64.5331 719.734 61.0977 719.734 56.0339C719.757 51.3716 723.122 47.6016 727.744 47.6016ZM722.404 55.0523H733.061C733.039 52.6431 731.423 49.6762 727.722 49.6762C724.266 49.6762 722.539 52.5762 722.404 55.0523Z" fill="white"/>
<defs>
<linearGradient id="paint0_linear" x1="-79.5" y1="-139" x2="1239.37" y2="75.836" gradientUnits="userSpaceOnUse">
<stop stop-color="#3E4954"/>
<stop offset="1" stop-color="#4696F2"/>
</linearGradient>
<linearGradient id="paint1_linear" x1="330.515" y1="397.116" x2="1546.57" y2="670.989" gradientUnits="userSpaceOnUse">
<stop stop-color="#3E4954"/>
<stop offset="1" stop-color="#4696F2"/>
</linearGradient>
<linearGradient id="paint2_linear" x1="330.62" y1="-301.884" x2="1546.54" y2="-28.0776" gradientUnits="userSpaceOnUse">
<stop stop-color="#3E4954"/>
<stop offset="1" stop-color="#4696F2"/>
</linearGradient>
<linearGradient id="paint3_linear" x1="330.62" y1="442.812" x2="1405.4" y2="909.678" gradientUnits="userSpaceOnUse">
<stop stop-color="#3E4954"/>
<stop offset="1" stop-color="#4696F2"/>
</linearGradient>
<linearGradient id="paint4_linear" x1="330.62" y1="80.4499" x2="1405.4" y2="547.316" gradientUnits="userSpaceOnUse">
<stop stop-color="#3E4954"/>
<stop offset="1" stop-color="#4696F2"/>
</linearGradient>
<linearGradient id="paint5_linear" x1="-114" y1="33.5" x2="515.365" y2="24.9142" gradientUnits="userSpaceOnUse">
<stop stop-color="#3E4954"/>
<stop offset="1" stop-color="#4696F2"/>
</linearGradient>
</defs>
</svg>
