<svg width="22" height="14" viewBox="0 0 22 14" fill="none" xmlns="http://www.w3.org/2000/svg">
<path d="M14.667 6.08325C16.1887 6.08325 17.4078 4.85492 17.4078 3.33325C17.4078 1.81159 16.1887 0.583252 14.667 0.583252C13.1453 0.583252 11.917 1.81159 11.917 3.33325C11.917 4.85492 13.1453 6.08325 14.667 6.08325ZM7.33366 6.08325C8.85533 6.08325 10.0745 4.85492 10.0745 3.33325C10.0745 1.81159 8.85533 0.583252 7.33366 0.583252C5.81199 0.583252 4.58366 1.81159 4.58366 3.33325C4.58366 4.85492 5.81199 6.08325 7.33366 6.08325ZM7.33366 7.91659C5.19783 7.91659 0.916992 8.98909 0.916992 11.1249V13.4166H13.7503V11.1249C13.7503 8.98909 9.46949 7.91659 7.33366 7.91659ZM14.667 7.91659C14.4012 7.91659 14.0987 7.93492 13.7778 7.96242C14.8412 8.73242 15.5837 9.76825 15.5837 11.1249V13.4166H21.0837V11.1249C21.0837 8.98909 16.8028 7.91659 14.667 7.91659Z" fill="#417EFF"/>
</svg>
