<svg width="59" height="58" viewBox="0 0 59 58" fill="none" xmlns="http://www.w3.org/2000/svg">
<rect x="0.0786133" y="0.078125" width="58.1765" height="57.8438" fill="#8FA4D0"/>
<path d="M29.167 29L44.8722 44.6154L33.1382 56.2823C30.9395 58.4685 27.3946 58.4685 25.1959 56.2823L13.4619 44.6154L29.167 29Z" fill="#417EFF"/>
<path d="M44.8722 13.3847L33.1382 1.71774C30.9395 -0.468413 27.3946 -0.468413 25.1959 1.71774L13.4619 13.3847L29.167 29L44.8722 13.3847Z" fill="#417EFF"/>
<path d="M44.8722 44.6154L29.167 29L13.4619 44.6154H44.8722Z" fill="#005CFF"/>
<path d="M29.167 29.0001L44.8722 13.3848H13.4619L29.167 29.0001Z" fill="#C2D3F0"/>
<path d="M56.606 25.0517L44.8721 13.3848V44.6155L56.606 32.9486C58.8048 30.7625 58.8048 27.2378 56.606 25.0517Z" fill="#417EFF"/>
<path d="M13.4616 44.6155V13.3848L1.72765 25.0517C-0.471066 27.2378 -0.471066 30.7625 1.72765 32.9486L13.4616 44.6155Z" fill="#417EFF"/>
</svg>
